# xmcd
#
# Track frame offsets:
#	150
#	10831
#	22657
#	36385
#	50283
#	66801
#	79957
#	93866
#	115874
#	127455
#	140165
#	158758
#	170990
#	192666
#	205536
#	221120
#	235123
#	251110
#	262923
#	276064
#	292742
#	303808
#	316088
#	332187
#
# Disc length: 4626 seconds
# Revision: 1
# Processed by: cddbd v1.5.2PL0 Copyright (c) Steve Scherf et al.
# Submitted via: dBpowerAMP V12.0
#
DISCID=5c121018
DTITLE=Various Artist - Massive Hits Country 3
DYEAR=2013
DGENRE=Country
TTITLE0=Slim Whitman - Rose Marie
TTITLE1=Tennessee Ernie Ford - Make the World Go Away
TTITLE2=Willie Nelson - Funny How Times Slips Away
TTITLE3=Glen Campbell - Wichita Lineman
TTITLE4=Dr. Hook - More Like the Movies
TTITLE5=Crystal Gayle - Talking In Your Sleep
TTITLE6=Bobbie Gentry - Raindrops Keeps Falling On My Head
TTITLE7=Deana Carter - Strawberry Wine
TTITLE8=George Jones - She Thinks I Still Care
TTITLE9=Tanya Tucker - Would You Lay With Me (In a Field of Stone)
TTITLE10=Joe South - Walk a Mile In My Shoes
TTITLE11=Faron Young - I Fall To Pieces
TTITLE12=Dan Seals - Everything That Glitters (is Not Gold)
TTITLE13=Billie Jo Spears - '57 Chevrolet
TTITLE14=George Ducas - Tricky Moon
TTITLE15=Larry Gatlin and the Gatlin Brothers Band - Boogie and Beethoven
TTITLE16=Steve Wariner - Road Trippin'
TTITLE17=Wild Rose - Go Down Swingin'
TTITLE18=Suzy Bogguss - I Want To Be a Cowboy's Sweetheart
TTITLE19=Billy Dean - That Girl's Been Spyin' On Me
TTITLE20=Chris LeDoux - So You Want To Be a Cowboy
TTITLE21=Billie Jo Spears/Del Reeves - Let Your Love Flow
TTITLE22=Nitty Gritty Dirt Band, The - Mr. Bojangles
TTITLE23=Asleep at the Wheel - Lay Down Sally
EXTD=
EXTT0=
EXTT1=
EXTT2=
EXTT3=
EXTT4=
EXTT5=
EXTT6=
EXTT7=
EXTT8=
EXTT9=
EXTT10=
EXTT11=
EXTT12=
EXTT13=
EXTT14=
EXTT15=
EXTT16=
EXTT17=
EXTT18=
EXTT19=
EXTT20=
EXTT21=
EXTT22=
EXTT23=
PLAYORDER=
